<?xml version="1.0" encoding="UTF-8"?>
<svg width="1790px" height="274px" viewBox="0 0 1790 274" version="1.1" xmlns="http://www.w3.org/2000/svg" xmlns:xlink="http://www.w3.org/1999/xlink">
    <title>LOGO with Name Colored</title>
    <defs>
        <linearGradient x1="82.7024551%" y1="7.98142112%" x2="20.7606921%" y2="149.65343%" id="linearGradient-1">
            <stop stop-color="#32C5FF" offset="0%"></stop>
            <stop stop-color="#B620E0" offset="51.2583893%"></stop>
            <stop stop-color="#F7B500" offset="100%"></stop>
        </linearGradient>
        <path d="M19.7145984,9.9475983e-14 C34.681652,9.67265799e-14 48.8146585,6.89320986 58.0291863,18.6874954 L163.880165,154.173188 C165.253814,155.931412 166,158.098526 166,160.329729 L166,248.38691 C166,250.596049 164.209139,252.38691 162,252.38691 C160.768982,252.38691 159.60653,251.820087 158.848447,250.850183 L108.121118,185.948784 C106.746663,184.190283 106,182.022518 106,179.790601 L106,141.429321 C106,140.533285 105.699147,139.663198 105.14567,138.958539 L1.08250741,6.47078174 C-0.282067667,4.73347636 0.0200899482,2.21890541 1.75739533,0.854330341 C2.46205345,0.300853143 3.33214131,9.96405821e-14 4.22817707,9.9475983e-14 L19.7145984,9.9475983e-14 Z M263.656523,8.52651283e-14 C266.970231,3.1748916e-14 269.656523,2.6862915 269.656523,6 C269.656523,7.3442124 269.205136,8.64948894 268.374741,9.70653688 L186.233846,114.267395 C184.869137,116.004595 182.354543,116.306558 180.617343,114.941849 C180.363689,114.742584 180.13507,114.513369 179.936466,114.259197 L161.633593,90.8353569 C160.501056,89.3859463 160.502983,87.3509995 161.638264,85.903737 L197.462803,40.2344317 C198.144541,39.365348 197.992668,38.1081583 197.123584,37.4264198 C196.771417,37.1501677 196.336761,37.0000312 195.889171,37.000035 L121.532715,37.000669 C120.301443,37.0006795 119.138775,36.4336337 118.380703,35.4633984 L95.7216595,6.46272942 C94.3615316,4.72194017 94.6701185,2.20815014 96.4109078,0.848022238 C97.1142167,0.298507123 97.981107,8.4540905e-14 98.8736372,8.52651283e-14 L263.656523,8.52651283e-14 Z" id="path-2"></path>
        <linearGradient x1="-123.309402%" y1="51.4290403%" x2="97.0588777%" y2="49.5844871%" id="linearGradient-4">
            <stop stop-color="#B620E0" offset="0%"></stop>
            <stop stop-color="#32C5FF" offset="100%"></stop>
        </linearGradient>
    </defs>
    <g id="LOGO-with-Name-Colored" stroke="none" stroke-width="1" fill="none" fill-rule="evenodd">
        <g id="Group-2" transform="translate(10.000000, 10.000000)">
            <g id="Group">
                <mask id="mask-3" fill="white">
                    <use xlink:href="#path-2"></use>
                </mask>
                <use id="Combined-Shape" fill="url(#linearGradient-1)" xlink:href="#path-2"></use>
            </g>
            <path d="M396.472,202.14 C406.173333,202.14 414.876,200.856 422.58,198.288 C430.284,195.72 436.846667,192.189 442.268,187.695 C447.689333,183.201 451.898,177.958 454.894,171.966 C457.89,165.974 459.459333,159.482667 459.602,152.492 C459.744667,151.208 459.352333,150.138 458.425,149.282 C457.497667,148.426 456.392,147.998 455.108,147.998 L455.108,147.998 L434.778,147.998 C433.208667,147.998 431.924667,148.354667 430.926,149.068 C429.927333,149.781333 429.214,151.136667 428.786,153.134 C426.646,162.407333 422.758333,168.791667 417.123,172.287 C411.487667,175.782333 404.532667,177.53 396.258,177.53 C386.699333,177.53 379.066667,174.855 373.36,169.505 C367.653333,164.155 364.586,155.345333 364.158,143.076 C363.73,130.806667 363.73,118.822667 364.158,107.124 C364.586,94.8546667 367.653333,86.045 373.36,80.695 C379.066667,75.345 386.699333,72.67 396.258,72.67 C404.532667,72.67 411.452,74.382 417.016,77.806 C422.58,81.23 426.503333,87.65 428.786,97.066 C429.214,98.9206667 429.927333,100.240333 430.926,101.025 C431.924667,101.809667 433.208667,102.202 434.778,102.202 L434.778,102.202 L455.108,102.202 C456.392,102.202 457.497667,101.774 458.425,100.918 C459.352333,100.062 459.744667,98.992 459.602,97.708 C459.459333,90.7173333 457.89,84.226 454.894,78.234 C451.898,72.242 447.689333,66.999 442.268,62.505 C436.846667,58.011 430.284,54.48 422.58,51.912 C414.876,49.344 406.173333,48.06 396.472,48.06 C383.346667,48.06 372.183,50.3783333 362.981,55.015 C353.779,59.6516667 346.717,66.3213333 341.795,75.024 C336.873,83.7266667 334.126667,94.07 333.556,106.054 C333.413333,112.188667 333.342,118.608667 333.342,125.314 C333.342,132.019333 333.413333,138.296667 333.556,144.146 C334.126667,156.272667 336.837333,166.651667 341.688,175.283 C346.538667,183.914333 353.565,190.548333 362.767,195.185 C371.969,199.821667 383.204,202.14 396.472,202.14 Z M514.880875,202.14 C521.015542,202.14 526.329875,201.391 530.823875,199.893 C535.317875,198.395 539.134208,196.433333 542.272875,194.008 C545.411542,191.582667 547.908208,189.086 549.762875,186.518 L549.762875,186.518 L549.762875,194.864 C549.762875,196.290667 550.226542,197.503333 551.153875,198.502 C552.081208,199.500667 553.329542,200 554.898875,200 L554.898875,200 L572.232875,200 C573.659542,200 574.872208,199.500667 575.870875,198.502 C576.869542,197.503333 577.368875,196.290667 577.368875,194.864 L577.368875,194.864 L577.368875,127.668 C577.368875,122.104 576.512875,116.825333 574.800875,111.832 C573.088875,106.838667 570.378208,102.487333 566.668875,98.778 C562.959542,95.0686667 558.001875,92.1083333 551.795875,89.897 C545.589875,87.6856667 537.992875,86.58 529.004875,86.58 C520.730208,86.58 513.668208,87.65 507.818875,89.79 C501.969542,91.93 497.225875,94.5336667 493.587875,97.601 C489.949875,100.668333 487.239208,103.842667 485.455875,107.124 C483.672542,110.405333 482.709542,113.187333 482.566875,115.47 C482.566875,116.896667 482.959208,118.038 483.743875,118.894 C484.528542,119.75 485.705542,120.178 487.274875,120.178 L487.274875,120.178 L504.180875,120.178 C506.320875,120.178 507.961542,119.250667 509.102875,117.396 C510.672208,113.972 513.061875,111.225667 516.271875,109.157 C519.481875,107.088333 523.654875,106.054 528.790875,106.054 C536.066875,106.054 541.202875,107.694667 544.198875,110.976 C547.194875,114.257333 548.692875,118.894 548.692875,124.886 L548.692875,124.886 L548.692875,129.38 L519.374875,133.66 C506.249542,135.657333 495.620875,139.616333 487.488875,145.537 C479.356875,151.457667 475.290875,159.411333 475.290875,169.398 C475.290875,175.532667 477.038542,181.061 480.533875,185.983 C484.029208,190.905 488.772875,194.828333 494.764875,197.753 C500.756875,200.677667 507.462208,202.14 514.880875,202.14 Z M522.156875,181.81 C518.875542,181.81 515.736875,181.275 512.740875,180.205 C509.744875,179.135 507.283875,177.494333 505.357875,175.283 C503.431875,173.071667 502.468875,170.396667 502.468875,167.258 C502.468875,163.120667 504.537542,159.625333 508.674875,156.772 C512.812208,153.918667 519.089542,151.85 527.506875,150.566 L527.506875,150.566 L548.906875,147.142 L548.906875,151.636 C548.906875,158.484 547.729875,164.155 545.375875,168.649 C543.021875,173.143 539.811875,176.46 535.745875,178.6 C531.679875,180.74 527.150208,181.81 522.156875,181.81 Z M646.0495,202.14 C654.6095,202.14 661.742833,200.713333 667.4495,197.86 C673.156167,195.006667 677.9355,191.083333 681.7875,186.09 L681.7875,186.09 L681.7875,194.864 C681.7875,196.290667 682.251167,197.503333 683.1785,198.502 C684.105833,199.500667 685.354167,200 686.9235,200 L686.9235,200 L704.2575,200 C705.684167,200 706.896833,199.500667 707.8955,198.502 C708.894167,197.503333 709.3935,196.290667 709.3935,194.864 L709.3935,194.864 L709.3935,93.856 C709.3935,92.4293333 708.894167,91.2166667 707.8955,90.218 C706.896833,89.2193333 705.684167,88.72 704.2575,88.72 L704.2575,88.72 L685.4255,88.72 C683.998833,88.72 682.786167,89.2193333 681.7875,90.218 C680.788833,91.2166667 680.2895,92.4293333 680.2895,93.856 L680.2895,93.856 L680.2895,152.706 C680.2895,160.980667 678.113833,167.472 673.7625,172.18 C669.411167,176.888 663.526167,179.242 656.1075,179.242 C640.556833,179.242 632.7815,170.396667 632.7815,152.706 L632.7815,152.706 L632.7815,93.856 C632.7815,92.4293333 632.317833,91.2166667 631.3905,90.218 C630.463167,89.2193333 629.214833,88.72 627.6455,88.72 L627.6455,88.72 L608.8135,88.72 C607.386833,88.72 606.174167,89.2193333 605.1755,90.218 C604.176833,91.2166667 603.6775,92.4293333 603.6775,93.856 L603.6775,93.856 L603.6775,153.99 C603.6775,163.834 605.3895,172.358333 608.8135,179.563 C612.2375,186.767667 617.123833,192.331667 623.4725,196.255 C629.821167,200.178333 637.346833,202.14 646.0495,202.14 Z M779.832937,202.14 C790.675604,202.14 799.770604,200.677667 807.117937,197.753 C814.465271,194.828333 820.029271,190.798 823.809937,185.662 C827.590604,180.526 829.480937,174.748 829.480937,168.328 C829.480937,163.049333 828.303938,158.234333 825.949938,153.883 C823.595937,149.531667 819.601271,145.679667 813.965937,142.327 C808.330604,138.974333 800.733604,136.442 791.174937,134.73 C782.757604,133.018 776.480271,131.377333 772.342937,129.808 C768.205604,128.238667 765.459271,126.562333 764.103938,124.779 C762.748604,122.995667 762.070937,120.891333 762.070937,118.466 C762.070937,114.899333 763.497604,111.939 766.350937,109.585 C769.204271,107.231 773.341604,106.054 778.762937,106.054 C783.042937,106.054 786.502604,106.624667 789.141938,107.766 C791.781271,108.907333 794.028271,110.298333 795.882938,111.939 C797.737604,113.579667 799.449604,115.113333 801.018937,116.54 C801.589604,116.968 802.160271,117.324667 802.730937,117.61 C803.301604,117.895333 803.943604,118.038 804.656937,118.038 L804.656937,118.038 L820.492937,118.038 C821.776938,118.038 822.918271,117.574333 823.916937,116.647 C824.915604,115.719667 825.343604,114.471333 825.200938,112.902 C825.058271,110.762 823.988271,108.229667 821.990937,105.305 C819.993604,102.380333 817.104604,99.4913333 813.323937,96.638 C809.543271,93.7846667 804.799604,91.395 799.092937,89.469 C793.386271,87.543 786.680938,86.58 778.976937,86.58 C769.132938,86.58 760.893937,88.2206667 754.259937,91.502 C747.625937,94.7833333 742.632604,98.9563333 739.279937,104.021 C735.927271,109.085667 734.250937,114.4 734.250937,119.964 C734.250937,125.670667 735.534938,130.664 738.102938,134.944 C740.670938,139.224 744.594271,142.790667 749.872938,145.644 C755.151604,148.497333 761.785604,150.851333 769.774937,152.706 C777.906937,154.418 784.184271,156.023 788.606937,157.521 C793.029604,159.019 796.061271,160.695333 797.701937,162.55 C799.342604,164.404667 800.162937,166.83 800.162937,169.826 C800.162937,173.963333 798.272604,177.137667 794.491937,179.349 C790.711271,181.560333 786.038937,182.666 780.474937,182.666 C776.194937,182.666 772.628271,182.059667 769.774937,180.847 C766.921604,179.634333 764.460604,178.172 762.391938,176.46 C760.323271,174.748 758.361604,173.107333 756.506938,171.538 C755.793604,170.824667 755.222937,170.396667 754.794937,170.254 C754.366937,170.111333 753.867604,170.04 753.296938,170.04 L753.296938,170.04 L736.390937,170.04 C735.106937,170.04 733.929937,170.503667 732.859938,171.431 C731.789937,172.358333 731.326271,173.606667 731.468938,175.176 C731.611604,177.173333 732.610271,179.67 734.464937,182.666 C736.319604,185.662 739.172937,188.658 743.024937,191.654 C746.876937,194.65 751.834604,197.146667 757.897937,199.144 C763.961271,201.141333 771.272937,202.14 779.832937,202.14 Z M883.796813,202.14 C889.931479,202.14 895.245813,201.391 899.739813,199.893 C904.233812,198.395 908.050146,196.433333 911.188813,194.008 C914.327479,191.582667 916.824146,189.086 918.678813,186.518 L918.678813,186.518 L918.678813,194.864 C918.678813,196.290667 919.142479,197.503333 920.069813,198.502 C920.997146,199.500667 922.245479,200 923.814813,200 L923.814813,200 L941.148813,200 C942.575479,200 943.788146,199.500667 944.786813,198.502 C945.785479,197.503333 946.284813,196.290667 946.284813,194.864 L946.284813,194.864 L946.284813,127.668 C946.284813,122.104 945.428813,116.825333 943.716813,111.832 C942.004813,106.838667 939.294146,102.487333 935.584813,98.778 C931.875479,95.0686667 926.917813,92.1083333 920.711813,89.897 C914.505813,87.6856667 906.908813,86.58 897.920813,86.58 C889.646146,86.58 882.584146,87.65 876.734813,89.79 C870.885479,91.93 866.141813,94.5336667 862.503813,97.601 C858.865813,100.668333 856.155146,103.842667 854.371813,107.124 C852.588479,110.405333 851.625479,113.187333 851.482813,115.47 C851.482813,116.896667 851.875146,118.038 852.659813,118.894 C853.444479,119.75 854.621479,120.178 856.190813,120.178 L856.190813,120.178 L873.096813,120.178 C875.236813,120.178 876.877479,119.250667 878.018813,117.396 C879.588146,113.972 881.977813,111.225667 885.187813,109.157 C888.397813,107.088333 892.570813,106.054 897.706812,106.054 C904.982813,106.054 910.118813,107.694667 913.114813,110.976 C916.110813,114.257333 917.608812,118.894 917.608812,124.886 L917.608812,124.886 L917.608812,129.38 L888.290813,133.66 C875.165479,135.657333 864.536813,139.616333 856.404813,145.537 C848.272813,151.457667 844.206813,159.411333 844.206813,169.398 C844.206813,175.532667 845.954479,181.061 849.449813,185.983 C852.945146,190.905 857.688813,194.828333 863.680813,197.753 C869.672813,200.677667 876.378146,202.14 883.796813,202.14 Z M891.072813,181.81 C887.791479,181.81 884.652812,181.275 881.656813,180.205 C878.660813,179.135 876.199813,177.494333 874.273812,175.283 C872.347812,173.071667 871.384812,170.396667 871.384812,167.258 C871.384812,163.120667 873.453479,159.625333 877.590812,156.772 C881.728146,153.918667 888.005479,151.85 896.422812,150.566 L896.422812,150.566 L917.822813,147.142 L917.822813,151.636 C917.822813,158.484 916.645813,164.155 914.291812,168.649 C911.937813,173.143 908.727813,176.46 904.661812,178.6 C900.595812,180.74 896.066146,181.81 891.072813,181.81 Z M996.775437,200 C998.202104,200 999.414771,199.500667 1000.41344,198.502 C1001.4121,197.503333 1001.91144,196.290667 1001.91144,194.864 L1001.91144,194.864 L1001.91144,53.196 C1001.91144,51.7693333 1001.4121,50.5566667 1000.41344,49.558 C999.414771,48.5593333 998.202104,48.06 996.775437,48.06 L996.775437,48.06 L979.013438,48.06 C977.586771,48.06 976.374104,48.5593333 975.375437,49.558 C974.376771,50.5566667 973.877437,51.7693333 973.877437,53.196 L973.877437,53.196 L973.877437,194.864 C973.877437,196.290667 974.376771,197.503333 975.375437,198.502 C976.374104,199.500667 977.586771,200 979.013438,200 L979.013438,200 L996.775437,200 Z M1056.86931,200 C1058.43865,200 1059.72265,199.500667 1060.72131,198.502 C1061.71998,197.503333 1062.21931,196.290667 1062.21931,194.864 L1062.21931,194.864 L1062.21931,141.792 L1126.63331,141.792 C1128.20265,141.792 1129.48665,141.292667 1130.48531,140.294 C1131.48398,139.295333 1131.98331,138.082667 1131.98331,136.656 L1131.98331,136.656 L1131.98331,121.676 C1131.98331,120.106667 1131.48398,118.822667 1130.48531,117.824 C1129.48665,116.825333 1128.20265,116.326 1126.63331,116.326 L1126.63331,116.326 L1062.21931,116.326 L1062.21931,75.666 L1130.91331,75.666 C1132.48265,75.666 1133.76665,75.2023333 1134.76531,74.275 C1135.76398,73.3476667 1136.26331,72.0993333 1136.26331,70.53 L1136.26331,70.53 L1136.26331,55.55 C1136.26331,53.9806667 1135.76398,52.6966667 1134.76531,51.698 C1133.76665,50.6993333 1132.48265,50.2 1130.91331,50.2 L1130.91331,50.2 L1038.03731,50.2 C1036.61065,50.2 1035.39798,50.6993333 1034.39931,51.698 C1033.40065,52.6966667 1032.90131,53.9806667 1032.90131,55.55 L1032.90131,55.55 L1032.90131,194.864 C1032.90131,196.290667 1033.40065,197.503333 1034.39931,198.502 C1035.39798,199.500667 1036.61065,200 1038.03731,200 L1038.03731,200 L1056.86931,200 Z M1200.22256,202.14 C1208.78256,202.14 1215.9159,200.713333 1221.62256,197.86 C1227.32923,195.006667 1232.10856,191.083333 1235.96056,186.09 L1235.96056,186.09 L1235.96056,194.864 C1235.96056,196.290667 1236.42423,197.503333 1237.35156,198.502 C1238.2789,199.500667 1239.52723,200 1241.09656,200 L1241.09656,200 L1258.43056,200 C1259.85723,200 1261.0699,199.500667 1262.06856,198.502 C1263.06723,197.503333 1263.56656,196.290667 1263.56656,194.864 L1263.56656,194.864 L1263.56656,93.856 C1263.56656,92.4293333 1263.06723,91.2166667 1262.06856,90.218 C1261.0699,89.2193333 1259.85723,88.72 1258.43056,88.72 L1258.43056,88.72 L1239.59856,88.72 C1238.1719,88.72 1236.95923,89.2193333 1235.96056,90.218 C1234.9619,91.2166667 1234.46256,92.4293333 1234.46256,93.856 L1234.46256,93.856 L1234.46256,152.706 C1234.46256,160.980667 1232.2869,167.472 1227.93556,172.18 C1223.58423,176.888 1217.69923,179.242 1210.28056,179.242 C1194.7299,179.242 1186.95456,170.396667 1186.95456,152.706 L1186.95456,152.706 L1186.95456,93.856 C1186.95456,92.4293333 1186.4909,91.2166667 1185.56356,90.218 C1184.63623,89.2193333 1183.3879,88.72 1181.81856,88.72 L1181.81856,88.72 L1162.98656,88.72 C1161.5599,88.72 1160.34723,89.2193333 1159.34856,90.218 C1158.3499,91.2166667 1157.85056,92.4293333 1157.85056,93.856 L1157.85056,93.856 L1157.85056,153.99 C1157.85056,163.834 1159.56256,172.358333 1162.98656,179.563 C1166.41056,186.767667 1171.2969,192.331667 1177.64556,196.255 C1183.99423,200.178333 1191.5199,202.14 1200.22256,202.14 Z M1315.816,200 C1317.24267,200 1318.45533,199.500667 1319.454,198.502 C1320.45267,197.503333 1320.952,196.290667 1320.952,194.864 L1320.952,194.864 L1320.952,136.014 C1320.952,127.739333 1323.16333,121.248 1327.586,116.54 C1332.00867,111.832 1337.92933,109.478 1345.348,109.478 C1353.052,109.478 1358.937,111.832 1363.003,116.54 C1367.069,121.248 1369.102,127.739333 1369.102,136.014 L1369.102,136.014 L1369.102,194.864 C1369.102,196.290667 1369.60133,197.503333 1370.6,198.502 C1371.59867,199.500667 1372.81133,200 1374.238,200 L1374.238,200 L1393.07,200 C1394.49667,200 1395.70933,199.500667 1396.708,198.502 C1397.70667,197.503333 1398.206,196.290667 1398.206,194.864 L1398.206,194.864 L1398.206,134.73 C1398.206,124.743333 1396.45833,116.183333 1392.963,109.05 C1389.46767,101.916667 1384.51,96.3883333 1378.09,92.465 C1371.67,88.5416667 1364.10867,86.58 1355.406,86.58 C1346.846,86.58 1339.677,88.1136667 1333.899,91.181 C1328.121,94.2483333 1323.37733,98.0646667 1319.668,102.63 L1319.668,102.63 L1319.668,93.856 C1319.668,92.4293333 1319.16867,91.2166667 1318.17,90.218 C1317.17133,89.2193333 1315.95867,88.72 1314.532,88.72 L1314.532,88.72 L1296.984,88.72 C1295.55733,88.72 1294.34467,89.2193333 1293.346,90.218 C1292.34733,91.2166667 1291.848,92.4293333 1291.848,93.856 L1291.848,93.856 L1291.848,194.864 C1291.848,196.290667 1292.34733,197.503333 1293.346,198.502 C1294.34467,199.500667 1295.55733,200 1296.984,200 L1296.984,200 L1315.816,200 Z M1449.37875,200 C1450.80542,200 1452.01808,199.500667 1453.01675,198.502 C1454.01542,197.503333 1454.51475,196.290667 1454.51475,194.864 L1454.51475,194.864 L1454.51475,136.014 C1454.51475,127.739333 1456.72608,121.248 1461.14875,116.54 C1465.57142,111.832 1471.49208,109.478 1478.91075,109.478 C1486.61475,109.478 1492.49975,111.832 1496.56575,116.54 C1500.63175,121.248 1502.66475,127.739333 1502.66475,136.014 L1502.66475,136.014 L1502.66475,194.864 C1502.66475,196.290667 1503.16408,197.503333 1504.16275,198.502 C1505.16142,199.500667 1506.37408,200 1507.80075,200 L1507.80075,200 L1526.63275,200 C1528.05942,200 1529.27208,199.500667 1530.27075,198.502 C1531.26942,197.503333 1531.76875,196.290667 1531.76875,194.864 L1531.76875,194.864 L1531.76875,134.73 C1531.76875,124.743333 1530.02108,116.183333 1526.52575,109.05 C1523.03042,101.916667 1518.07275,96.3883333 1511.65275,92.465 C1505.23275,88.5416667 1497.67142,86.58 1488.96875,86.58 C1480.40875,86.58 1473.23975,88.1136667 1467.46175,91.181 C1461.68375,94.2483333 1456.94008,98.0646667 1453.23075,102.63 L1453.23075,102.63 L1453.23075,93.856 C1453.23075,92.4293333 1452.73142,91.2166667 1451.73275,90.218 C1450.73408,89.2193333 1449.52142,88.72 1448.09475,88.72 L1448.09475,88.72 L1430.54675,88.72 C1429.12008,88.72 1427.90742,89.2193333 1426.90875,90.218 C1425.91008,91.2166667 1425.41075,92.4293333 1425.41075,93.856 L1425.41075,93.856 L1425.41075,194.864 C1425.41075,196.290667 1425.91008,197.503333 1426.90875,198.502 C1427.90742,199.500667 1429.12008,200 1430.54675,200 L1430.54675,200 L1449.37875,200 Z M1606.9095,202.14 C1614.89883,202.14 1621.9965,201.105667 1628.2025,199.037 C1634.4085,196.968333 1639.58017,194.364667 1643.7175,191.226 C1647.85483,188.087333 1651.02917,184.877333 1653.2405,181.596 C1655.45183,178.314667 1656.62883,175.532667 1656.7715,173.25 C1656.91417,171.966 1656.52183,170.896 1655.5945,170.04 C1654.66717,169.184 1653.49017,168.756 1652.0635,168.756 L1652.0635,168.756 L1633.6595,168.756 C1632.09017,168.756 1630.91317,168.934333 1630.1285,169.291 C1629.34383,169.647667 1628.3095,170.682 1627.0255,172.394 C1626.31217,173.392667 1625.0995,174.676667 1623.3875,176.246 C1621.6755,177.815333 1619.46417,179.206333 1616.7535,180.419 C1614.04283,181.631667 1610.69017,182.238 1606.6955,182.238 C1601.84483,182.238 1597.67183,180.954 1594.1765,178.386 C1590.68117,175.818 1588.04183,172.429667 1586.2585,168.221 C1584.47517,164.012333 1583.51217,159.411333 1583.3695,154.418 L1583.3695,154.418 L1583.3695,152.706 L1654.4175,152.706 C1655.98683,152.706 1657.27083,152.206667 1658.2695,151.208 C1659.26817,150.209333 1659.7675,148.996667 1659.7675,147.57 L1659.7675,147.57 L1659.7675,143.076 C1659.7675,131.948 1657.77017,122.139667 1653.7755,113.651 C1649.78083,105.162333 1643.86017,98.5283333 1636.0135,93.749 C1628.16683,88.9696667 1618.4655,86.58 1606.9095,86.58 C1596.49483,86.58 1587.4355,88.6843333 1579.7315,92.893 C1572.0275,97.1016667 1565.99983,103.093667 1561.6485,110.869 C1557.29717,118.644333 1554.83617,127.953333 1554.2655,138.796 C1554.12283,140.08 1554.0515,141.827667 1554.0515,144.039 C1554.0515,146.250333 1554.12283,148.069333 1554.2655,149.496 C1554.97883,166.330667 1559.97217,179.313333 1569.2455,188.444 C1578.51883,197.574667 1591.0735,202.14 1606.9095,202.14 Z M1630.6635,134.73 L1583.3695,134.73 L1583.3695,134.088 C1583.3695,128.524 1584.26117,123.637667 1586.0445,119.429 C1587.82783,115.220333 1590.50283,111.939 1594.0695,109.585 C1597.63617,107.231 1601.91617,106.054 1606.9095,106.054 C1611.90283,106.054 1616.18283,107.231 1619.7495,109.585 C1623.31617,111.939 1626.02683,115.220333 1627.8815,119.429 C1629.73617,123.637667 1630.6635,128.524 1630.6635,134.088 L1630.6635,134.088 L1630.6635,134.73 Z M1705.62369,200 C1707.05035,200 1708.26302,199.500667 1709.26169,198.502 C1710.26035,197.503333 1710.75969,196.290667 1710.75969,194.864 L1710.75969,194.864 L1710.75969,53.196 C1710.75969,51.7693333 1710.26035,50.5566667 1709.26169,49.558 C1708.26302,48.5593333 1707.05035,48.06 1705.62369,48.06 L1705.62369,48.06 L1687.86169,48.06 C1686.43502,48.06 1685.22235,48.5593333 1684.22369,49.558 C1683.22502,50.5566667 1682.72569,51.7693333 1682.72569,53.196 L1682.72569,53.196 L1682.72569,194.864 C1682.72569,196.290667 1683.22502,197.503333 1684.22369,198.502 C1685.22235,199.500667 1686.43502,200 1687.86169,200 L1687.86169,200 L1705.62369,200 Z" id="CausalFunnel" fill="url(#linearGradient-4)" fill-rule="nonzero"></path>
        </g>
    </g>
</svg>